<?xml version="1.0" encoding="UTF-8" standalone="no"?>
<!-- Created with Inkscape (http://www.inkscape.org/) -->

<svg
   xmlns:dc="http://purl.org/dc/elements/1.1/"
   xmlns:cc="http://creativecommons.org/ns#"
   xmlns:rdf="http://www.w3.org/1999/02/22-rdf-syntax-ns#"
   xmlns:svg="http://www.w3.org/2000/svg"
   xmlns="http://www.w3.org/2000/svg"
   xmlns:sodipodi="http://sodipodi.sourceforge.net/DTD/sodipodi-0.dtd"
   xmlns:inkscape="http://www.inkscape.org/namespaces/inkscape"
   width="689.88458"
   height="357.52405"
   id="svg2"
   version="1.1"
   inkscape:version="0.48.4 r9939"
   sodipodi:docname="New document 1">
  <defs
     id="defs4" />
  <sodipodi:namedview
     id="base"
     pagecolor="#ffffff"
     bordercolor="#666666"
     borderopacity="1.0"
     inkscape:pageopacity="0.0"
     inkscape:pageshadow="2"
     inkscape:zoom="1"
     inkscape:cx="346.37654"
     inkscape:cy="193.00174"
     inkscape:document-units="px"
     inkscape:current-layer="layer1"
     showgrid="false"
     fit-margin-top="20"
     fit-margin-right="20"
     fit-margin-bottom="20"
     fit-margin-left="20"
     inkscape:window-width="1362"
     inkscape:window-height="729"
     inkscape:window-x="0"
     inkscape:window-y="18"
     inkscape:window-maximized="0" />
  <metadata
     id="metadata7">
    <rdf:RDF>
      <cc:Work
         rdf:about="">
        <dc:format>image/svg+xml</dc:format>
        <dc:type
           rdf:resource="http://purl.org/dc/dcmitype/StillImage" />
        <dc:title></dc:title>
      </cc:Work>
    </rdf:RDF>
  </metadata>
  <g
     inkscape:label="Layer 1"
     inkscape:groupmode="layer"
     id="layer1"
     transform="translate(-13.623459,-7.8398708)">
    <g
       id="g3867"
       transform="translate(234,-107)">
      <path
         inkscape:connector-curvature="0"
         id="path3831"
         d="m 285,357.36218 c 1.70497,-7.31854 0.72546,-23.72545 5,-28 0.5,-0.5 -0.5,-2.5 0,-3 0.501,-0.501 2.34442,-1.34442 3,-2 0.4714,-0.4714 -0.4714,-1.52859 0,-2 3.58202,-3.58201 5.17054,-7 12,-7 1.55268,0 8.14532,2.14532 9,3 8.86739,8.8674 9,17.68853 9,32 0,6.27761 -3,13.5978 -3,12"
         style="fill:none;stroke:#000000;stroke-width:5;stroke-linecap:round;stroke-linejoin:round;stroke-miterlimit:4;stroke-opacity:1;stroke-dasharray:none" />
      <path
         inkscape:connector-curvature="0"
         id="path3833"
         d="m 322,340.36218 c 0.57144,-4.86094 1.28095,-12.28094 5,-16 0.45972,-0.45972 2.75509,-2.51017 3,-3 0.47274,-0.94548 0.25177,-3.25176 1,-4 2.99813,-2.99813 13.20144,-6.79856 18,-2 2.12092,2.12093 11.93211,20.06789 8,24 -1.72131,1.72131 -0.86891,5.26217 0,7 1.46667,2.93334 -1.46667,8.06667 0,11 1.2357,2.47141 1,-0.34518 1,2 0,0.33334 0,3.66667 0,1"
         style="fill:none;stroke:#000000;stroke-width:5;stroke-linecap:round;stroke-linejoin:round;stroke-miterlimit:4;stroke-opacity:1;stroke-dasharray:none" />
      <path
         inkscape:connector-curvature="0"
         id="path3841"
         d="m 356,332.36218 c 1.27469,-7.96583 3.20441,-11.2044 8,-16 0.33333,-0.33333 0.66667,-2.66666 1,-3 1.14235,-1.14235 5.04484,-1.04484 6,-2 0.1,-0.1 0.76667,-2.23333 2,-1 0.83868,0.83868 2.93167,2.96584 5,4 4.12666,2.06333 6.80436,4.60871 9,9 1.85121,3.70243 2,28.91206 2,36"
         style="fill:none;stroke:#000000;stroke-width:5;stroke-linecap:round;stroke-linejoin:round;stroke-miterlimit:4;stroke-opacity:1;stroke-dasharray:none" />
      <path
         inkscape:connector-curvature="0"
         id="path3843"
         d="m 387,333.36218 c 4.05895,-12.88829 -4.18588,11.55764 2,-7 1.81185,-5.43556 11.63648,-18.68176 19,-15 2.70143,1.35072 5.70416,4.70417 8,7 0.66667,0.66667 0.33333,2.33334 1,3 1.45763,1.45763 -1.42573,5.72281 -1,7 2.70297,8.1089 -0.61667,30.38334 3,34"
         style="fill:none;stroke:#000000;stroke-width:5;stroke-linecap:round;stroke-linejoin:round;stroke-miterlimit:4;stroke-opacity:1;stroke-dasharray:none" />
      <path
         inkscape:connector-curvature="0"
         id="path3845"
         d="m 301,284.36218 c -2.50837,0.82503 -6.93679,1.93679 -9,4 -0.33333,0.33334 -0.66667,2.66667 -1,3 -0.2357,0.2357 -1,-0.33333 -1,0 0,2.24778 6.87221,5.87221 8,7 1.14168,1.14168 5.63263,0 5,0 -0.66667,0 -2,0.66667 -2,0 0,-2.75366 2.2824,-0.2824 3,-1 0.94536,-0.94536 1.16343,-4.16343 2,-5 3.32211,-3.3221 -4.13985,-7.48391 -5,-8 z"
         style="fill:none;stroke:#000000;stroke-width:5;stroke-linecap:round;stroke-linejoin:round;stroke-miterlimit:4;stroke-opacity:1;stroke-dasharray:none" />
      <path
         inkscape:connector-curvature="0"
         id="path3847"
         d="m 334,287.36218 c 0.51104,6.0362 -3.79815,-0.20185 -5,1 -1.77047,1.77048 -4.01828,8.96345 -3,11 0.68146,1.36293 11.15318,3.84683 12,3 0.89515,-0.89515 5.28615,-10.71385 3,-13 -1.30679,-1.30679 2.32733,2.16367 -2,0"
         style="fill:none;stroke:#000000;stroke-width:5;stroke-linecap:round;stroke-linejoin:round;stroke-miterlimit:4;stroke-opacity:1;stroke-dasharray:none" />
      <path
         inkscape:connector-curvature="0"
         id="path3849"
         d="m 364,290.36218 c -16.40316,3.17116 1.11535,16.88465 8,10 0.99558,-0.99557 1.98778,-8 0,-8 -3.57713,0 -3.87183,-0.34873 -8,-2 z"
         style="fill:none;stroke:#000000;stroke-width:5;stroke-linecap:round;stroke-linejoin:round;stroke-miterlimit:4;stroke-opacity:1;stroke-dasharray:none" />
      <path
         inkscape:connector-curvature="0"
         id="path3853"
         d="m 395,283.36218 c -8.21238,2.63451 -11.92345,5.1531 -8,13 0.51574,1.03147 0.58836,2.29418 2,3 1.73937,0.86969 4.51824,-0.50608 6,-1 7.09093,-2.36364 3.2572,-9.57133 0,-15 z"
         style="fill:none;stroke:#000000;stroke-width:5;stroke-linecap:round;stroke-linejoin:round;stroke-miterlimit:4;stroke-opacity:1;stroke-dasharray:none" />
      <path
         inkscape:connector-curvature="0"
         id="path3855"
         d="m 315,266.36218 c -15.66569,2.09612 -0.31283,21.31283 6,15 2.18734,-2.18733 1.85416,-3.29168 0,-7 -2.62963,-5.25927 0.95903,-2.43277 -6,-8 z"
         style="fill:none;stroke:#000000;stroke-width:5;stroke-linecap:round;stroke-linejoin:round;stroke-miterlimit:4;stroke-opacity:1;stroke-dasharray:none" />
      <path
         inkscape:connector-curvature="0"
         id="path3857"
         d="m 340,263.36218 c -7.79021,5.91413 -1.13305,23.06653 9,18 4.16176,-2.08088 -1.06904,0.069 1,-2 5.7182,-5.7182 -3.58998,-13.43599 -10,-16 z"
         style="fill:none;stroke:#000000;stroke-width:5;stroke-linecap:round;stroke-linejoin:round;stroke-miterlimit:4;stroke-opacity:1;stroke-dasharray:none" />
      <path
         inkscape:connector-curvature="0"
         id="path3859"
         d="m 374,266.36218 c -1.33333,1 -3,4.33334 -4,3 -1,-1.33333 4.74536,-4.49071 4,-3 -0.60506,1.21011 -7,5.31728 -7,8 0,8.10963 4.42407,6.68482 11,8 6.19725,1.23945 8,0.74141 8,-6 0,-1.54956 0.0219,-3.97806 -1,-5 -1.231,-1.23099 -3.59518,-0.79759 -6,-2 -10.90783,-5.45391 0.79765,-2 -10,-2 -2.04044,0 0.0404,-1 -2,-1"
         style="fill:none;stroke:#000000;stroke-width:5;stroke-linecap:round;stroke-linejoin:round;stroke-miterlimit:4;stroke-opacity:1;stroke-dasharray:none" />
      <path
         inkscape:connector-curvature="0"
         id="path3865"
         d="m 284,401.36218 c -4.31039,1.02686 -7.20779,-1.24156 -11,-2 -10.66062,-2.13212 -10,-5.86124 -10,-17 0,-2.51079 2.77367,-5.45265 2,-7 -1.36181,-2.72362 -10.47815,-11.56556 -10,-13 2.35237,-7.05712 11.2538,-7.98479 9,-17 -0.5612,-2.24481 -4.59153,-15.81694 -4,-17 3.23345,-6.4669 4.40872,-11.91009 1,-21 -0.95724,-2.55264 -2.42985,-6.64477 -4,-9 -0.52298,-0.78446 -2.42164,-1.15672 -2,-2 1.74292,-3.48584 9.54765,0.80942 11,-5 1.65112,-6.60446 -1.13721,-13.72559 2,-20 2.32671,-4.65341 9.82707,-9.82707 13,-13 0.33333,-0.33333 0.66667,-2.66666 1,-3 4.73124,-4.73124 9.24722,-14.24722 14,-19 0.5176,-0.51759 3.4824,-0.4824 4,-1 4.67534,-4.67534 17.03894,-5.55841 20,-10 5.2215,-7.83225 9.46257,-16.15643 13,-25 0.70671,-1.76676 1.47119,-8.47119 2,-9 2.72849,-2.72849 8.89254,-1.55373 12,0 2.75315,1.37658 7.4652,-1.5348 10,1 3.9687,3.9687 3.61571,12.23143 6,17 1.49514,2.99029 4.90164,5.90164 7,8 0.18426,0.18426 2.81574,0.81574 3,1 2.07648,2.07648 3.48018,4.98679 5,6 7.02151,4.68101 15.09769,7.3659 23,10 3.23056,1.07686 11.81133,-2.18867 14,0 1.42842,1.42842 13.64708,12.94123 14,14 1.91646,5.74938 -4.86306,10.20541 -1,16 1.88935,2.83402 4.57721,7.57722 7,10 2.0299,2.0299 5.61638,3.23276 7,6 0.96266,1.92532 -3.67021,6.02129 -4,8 -0.44459,2.66756 0.53522,21.53523 2,23 0.2357,0.2357 0.89459,-0.31623 1,0 1.60277,4.80831 2,16.47261 2,22 0,5.19385 4.21582,19.78419 4,20 -0.74493,0.74493 -3.43497,1.43497 -4,2 -2.37218,2.37219 -4.57095,6.57096 -7,9 -1.50392,1.50393 -4.98916,1.97833 -6,4 -1.25586,2.51173 -2.53178,5.35453 -5,7 -3.51212,2.34142 -7.35499,3.785 -11,5 -2.06819,0.6894 -4.11967,3.05984 -6,4 -0.59628,0.29815 -1.5286,-0.4714 -2,0 -1.12316,1.12316 -1.27495,6.27495 -3,8 -1.09871,1.09872 0.76272,4.28816 1,5 0.81862,2.45588 -1.09636,6.90364 1,9 5.29461,5.29461 21.40853,4.40853 25,8 0.96809,0.96809 0.78768,2.18153 2,4 0.56844,0.85267 1.64873,1.70254 1,3 -3.67374,7.34749 -12.79683,9.94921 -21,12 -12.78309,3.19577 -27.51126,8.41479 -42,6 -8.88818,-1.48136 -24.20232,-5.46628 -33,-4 -7.68809,1.28135 -23.35105,11.7806 -31,7 -10.09095,-6.30684 -4.82819,-3.0859 -1,-5 2.95194,-1.47597 3.48968,-6.44839 4,-9 0.42766,-2.13832 1.77858,-1.66426 1,-4 -0.34212,-1.02637 -1.25144,-4.25144 -2,-5 -0.94476,-0.94476 -5.75049,-1.37524 -7,-2 -9.43235,-4.71617 0.21897,-0.18735 -4,-3 -1,-0.66666 -4.20185,-2 -3,-2 0.33333,0 0,1.33334 0,1 0,-5.37364 -1.89969,-9.09927 -4,-14 -0.50982,-1.18958 -3,-8.50977 -3,-6 -1,2.66667 -2,5.33333 -3,8 z"
         style="fill:none;stroke:#000000;stroke-width:5;stroke-linecap:round;stroke-linejoin:round;stroke-miterlimit:4;stroke-opacity:1;stroke-dasharray:none" />
    </g>
    <g
       id="g3887"
       transform="translate(1,123)">
      <g
         id="g3815">
        <path
           style="fill:none;stroke:#000000;stroke-width:5;stroke-linecap:round;stroke-linejoin:round;stroke-miterlimit:4;stroke-opacity:1;stroke-dasharray:none"
           d="m 72,113.36218 c 7.143978,10.17991 11.952671,19.85802 16,32 0.755241,2.26573 1.366557,6.36656 3,8 0.605468,0.60547 5.271711,0 6,0 16.09692,0 32.03927,1 48,1 1.62747,0 24.27697,1.72304 25,1 1.11316,-1.11316 13,-30.37989 13,-33 0,-1.63386 1.28986,-3.57971 2,-5 0.29814,-0.59628 -0.66667,-2 0,-2 0.33333,0 0.33333,1 0,1 -0.4714,0 -0.57836,-0.78918 -1,-1 -1.97665,-0.98832 -6.8685,0 -9,0 -9,0 -18,0 -27,0 -5.21288,0 -11.59933,2.35017 -17,1 -12.45,-3.1125 -46.896187,-5.42076 -59,-3 z"
           id="path3765"
           inkscape:connector-curvature="0" />
        <path
           style="fill:none;stroke:#000000;stroke-width:5;stroke-linecap:round;stroke-linejoin:round;stroke-miterlimit:4;stroke-opacity:1;stroke-dasharray:none"
           d="m 92,110.36218 c 6.113162,-12.946038 5.031661,-29.031659 15,-38.999997 3.46152,-3.461525 11.8805,-3.626835 16,-5 4.32884,-1.442946 10.78903,-3.105485 15,-1 5.71709,2.858545 8.93303,9.89954 13,16 1.37133,2.056998 2.40348,9.806961 4,13 0.97203,1.944066 -1.51748,8.482517 0,9.999997 1.01908,1.01908 2,6.39258 2,8"
           id="path3767"
           inkscape:connector-curvature="0" />
      </g>
      <g
         id="g3811">
        <path
           style="fill:none;stroke:#000000;stroke-width:5;stroke-linecap:round;stroke-linejoin:round;stroke-miterlimit:4;stroke-opacity:1;stroke-dasharray:none"
           d="m 233,107.36218 c 6.16037,-3.34656 32,-22.404122 32,-24.999997 -0.96054,-1.280718 -5,-7.84924 -5,-8 0,-0.471405 0.66667,1.333333 1,1 0.66667,-0.666667 -1.57836,-1.156726 -2,-2 -0.67201,-1.344017 -0.99471,-2.994711 -2,-4 -0.33333,-0.333334 0.66667,-0.666667 1,-1 0.66667,-0.666667 -0.66667,-3.333334 0,-4 3.26963,-3.269635 4.94366,-5.971833 11,-9 4.74429,-2.372147 12.64015,4.640152 15,7 7.28825,7.288254 0.89872,24.101279 -6,31 -0.74493,0.744927 -1.43497,3.434967 -2,3.999997 -1.27873,1.27873 -5.62553,2.62554 -7,4 -3.48731,3.48731 -8.41358,8.41359 -12,12 -0.33333,0.33334 -2.66667,0.66667 -3,1 -1.16667,1.16667 -1.83333,2.83334 -3,4 -0.57263,0.57263 -3.07728,0.69243 -4,1 -7.57771,2.52591 0.36109,-0.36109 -2,2 -1.31339,1.31339 -8.17487,3.17487 -10,5 -0.84519,0.84519 -5.4974,1.2487 -7,2 -2.43035,1.21518 -9.66604,-1.83302 -12,-3 -0.48543,-0.24271 -3.57162,-2.57162 -4,-3 -0.99438,-0.99438 -5.11163,-10.88837 -3,-13 1.33467,-1.33467 3.10798,-6.10797 5,-8 0.4714,-0.4714 1.5286,0.47141 2,0 0.5,-0.5 0.5,-1.5 1,-2 1.50558,-1.50557 6.92929,-0.0707 8,1 0.70711,0.70711 2.10557,-0.44721 3,0 0.29814,0.14907 0,0.66667 0,1 1.66667,2 3.33333,4 5,6 z"
           id="path3769"
           inkscape:connector-curvature="0" />
        <path
           style="fill:none;stroke:#000000;stroke-width:5;stroke-linecap:round;stroke-linejoin:round;stroke-miterlimit:4;stroke-opacity:1;stroke-dasharray:none"
           d="m 224,129.36218 c -15.14862,2.95045 -3.98229,6.03542 0,14 1.75044,3.50088 -8.72812,4.72813 -10,6 -4.34235,4.34235 10.16463,4.13923 11,4 7.5518,-1.25863 23.57512,-8.60622 30,-7 7.63617,1.90905 16.25761,12.08587 22,14 0.70711,0.2357 0.37983,-1.58655 1,-2 1.86114,-1.24076 4.82705,-2 7,-2"
           id="path3771"
           inkscape:connector-curvature="0" />
      </g>
      <g
         transform="translate(-329,-159)"
         id="g3819">
        <path
           style="fill:none;stroke:#000000;stroke-width:5;stroke-linecap:round;stroke-linejoin:round;stroke-miterlimit:4;stroke-opacity:1;stroke-dasharray:none"
           d="m 489,70.362183 c -10.25432,3.403272 -28.41908,9.257252 -32,20 -0.29814,0.894427 -1.70186,1.105572 -2,2 -2.04787,6.143596 -2.47348,12.893897 -4,18.999997 -1.29651,5.18604 -0.61167,26.08249 2,30 8.72688,13.09032 26.82104,31.70526 44,36 10.77502,2.69376 22.24871,-0.4641 33,-2 11.59955,-1.65708 22.62337,-2.62337 30,-10 0.9257,-0.9257 7.63685,-18.18424 8,-20 0.22225,-1.11123 -0.37213,-2.8836 0,-4 12.01589,-36.04766 -12.4127,-58.470898 -44,-68.999997 -2.50049,-0.833496 -5.67574,-2.83787 -8,-4 -2.15043,-1.075214 -5.7372,-0.245734 -8,-1 -7.04604,-2.348682 -12.2856,-0.357199 -19,3 z"
           id="path3783"
           inkscape:connector-curvature="0" />
        <path
           style="fill:none;stroke:#000000;stroke-width:5;stroke-linecap:round;stroke-linejoin:round;stroke-miterlimit:4;stroke-opacity:1;stroke-dasharray:none"
           d="m 504,79.362183 c -2.34174,15.980555 -4,30.504687 -4,46.999997 0,1.05326 0.58242,12 -1,12 -0.33333,0 -0.33333,-1 0,-1 2.00647,0 0.75934,2.24066 3,0 4.09967,-4.09967 6.50909,-6.25454 12,-9 10.73248,-5.36624 21.25607,-10.64459 33,-14 3.26273,-0.93221 6.85686,-1.95229 10,-3 0.30787,-0.10262 3,-2.19528 3,-2 0,0.47141 -1,0.5286 -1,1"
           id="path3785"
           inkscape:connector-curvature="0" />
      </g>
      <path
         inkscape:connector-curvature="0"
         id="path3885"
         d="m 114,-14.637817 c -12.55106,4.213723 -32.727086,12.0906288 -40,22.9999996 -0.666667,1 -2.333333,1 -3,2.0000004 -6.089615,9.134421 -12.029417,19.049029 -18,29 -2.406296,4.010493 -5.473143,7.209714 -8,11 -2.605807,3.90871 -4.213891,11.534728 -6,16 -4.114208,10.285521 -0.881532,22.407661 -3,33 -1.832015,9.160077 -0.77362,23.452757 3,30.999997 0.924218,1.84844 0.938335,8.34584 2,11 2.476412,6.19103 20.580619,34.93547 26,39 3.926536,2.9449 7.05648,7.04236 11,10 3.882592,2.91195 7.768516,4.76852 11,8 1.826216,1.82622 4.928801,2.3096 7,3 0.894427,0.29815 1.105573,1.70186 2,2 8.06505,2.68835 15.45195,6.57533 24,8 5.26601,0.87767 10.02474,2.75619 15,4 4.6771,1.16928 10.36984,-0.15754 15,1 5.44293,1.36073 11.36845,1.87369 17,3 10.90071,2.18014 33.14885,-3.28721 44,-6 9.7855,-2.44637 20.3041,-1.57602 30,-4 5.33857,-1.33464 10.67207,-2.66801 16,-4 4.86535,-1.21633 9.14768,-5.43178 13,-8 16.42059,-10.94706 33.37361,-25.12083 40,-45 0.85523,-2.56569 4.09536,-5.28607 5,-8 2.83243,-8.49729 4.16514,-17.8257 6,-27 1.80843,-9.04214 1.91322,-27.260345 -1,-35.999997 -0.89,-2.669987 -6.13653,-10.136531 -8,-12 -1.07989,-1.079889 -1.17762,-5.177623 -2,-6 -1.7132,-1.713197 -3.11536,-4.115358 -5,-6 -0.4714,-0.471405 0.4714,-1.528596 0,-2 -2.7762,-2.776199 -4.98793,-8.987935 -7,-11 -6.80583,-6.805826 -13.57586,-19.575858 -19,-25 -0.33333,-0.333334 -2.66667,-0.666667 -3,-1 -6.4806,-6.480599 -12.51158,-11.5115799 -20,-19.00000038 -2.16435,-2.16435222 -9.01825,-7.00000002 -8,-7.00000002"
         style="fill:none;stroke:#000000;stroke-width:5;stroke-linecap:round;stroke-linejoin:round;stroke-miterlimit:4;stroke-opacity:1;stroke-dasharray:none" />
    </g>
    <g
       id="g3901"
       transform="translate(1,123)">
      <path
         inkscape:connector-curvature="0"
         id="path3899"
         d="m 358,88.362183 c 9.36015,1.261359 17.34714,1.163214 26,-1 3.10836,-0.77709 20.88506,1.114937 22,0 1.87745,-1.877453 9.2006,-1 10,-1 -1.26457,-4.526802 1,-9.034458 1,-13 0,-4.666667 0,-9.333334 0,-14 0,-1.374369 -2.37437,-4 -1,-4 1.98452,0 4.90833,5.908333 6,7 5.01234,5.012337 11.76008,11.760077 17,17 2.06904,2.069035 -0.0809,-3.161761 2,1 2.4614,4.922792 6.12558,9.125576 9,12 0.18426,0.184262 0.81574,2.815737 1,3 1.12917,1.129172 6.67844,3.643114 5,6.999997 -0.91011,1.82022 -4.79648,2.59883 -6,3 -0.82108,0.27369 -14.00415,13.00829 -15,15 -0.89298,1.78596 -11.44746,15 -13,15 -0.43612,0 -2,-16.338 -2,-18 0,-2.10138 -1,-3.71291 -1,-6 0,-0.66666 0,-2.66666 0,-2 0,0.66667 0.66667,2 0,2 -0.74536,0 -0.47295,-1.47295 -1,-2 -0.50702,-0.50702 -5.30166,-0.56611 -10,1 -2.77138,0.9238 -12.11959,-0.8804 -14,1 -1.31327,1.31327 -39.79246,1.20754 -40,1 -2.15813,-2.15813 2,-9.07873 2,-15.999997 0,-1.493409 1.71734,-8.056533 2,-8 1.66667,0.333333 -0.66667,3.333333 0,0 z"
         style="fill:none;stroke:#000000;stroke-width:5;stroke-linecap:round;stroke-linejoin:round;stroke-miterlimit:4;stroke-opacity:1;stroke-dasharray:none" />
    </g>
  </g>
</svg>
