<?xml version="1.0" encoding="UTF-8" standalone="no"?>
<!-- Created with Inkscape (http://www.inkscape.org/) -->

<svg
   xmlns:dc="http://purl.org/dc/elements/1.1/"
   xmlns:cc="http://creativecommons.org/ns#"
   xmlns:rdf="http://www.w3.org/1999/02/22-rdf-syntax-ns#"
   xmlns:svg="http://www.w3.org/2000/svg"
   xmlns="http://www.w3.org/2000/svg"
   xmlns:sodipodi="http://sodipodi.sourceforge.net/DTD/sodipodi-0.dtd"
   xmlns:inkscape="http://www.inkscape.org/namespaces/inkscape"
   width="723.51935"
   height="458.048"
   id="svg4259"
   version="1.1"
   inkscape:version="0.48.4 r9939"
   sodipodi:docname="bngsvg.svg">
  <defs
     id="defs4261" />
  <sodipodi:namedview
     id="base"
     pagecolor="#ffffff"
     bordercolor="#666666"
     borderopacity="1.0"
     inkscape:pageopacity="0.0"
     inkscape:pageshadow="2"
     inkscape:zoom="1"
     inkscape:cx="368.09847"
     inkscape:cy="104.71395"
     inkscape:document-units="px"
     inkscape:current-layer="layer1"
     showgrid="false"
     fit-margin-top="20"
     fit-margin-left="20"
     fit-margin-right="20"
     fit-margin-bottom="20"
     inkscape:window-width="1362"
     inkscape:window-height="729"
     inkscape:window-x="0"
     inkscape:window-y="18"
     inkscape:window-maximized="0" />
  <metadata
     id="metadata4264">
    <rdf:RDF>
      <cc:Work
         rdf:about="">
        <dc:format>image/svg+xml</dc:format>
        <dc:type
           rdf:resource="http://purl.org/dc/dcmitype/StillImage" />
      </cc:Work>
    </rdf:RDF>
  </metadata>
  <g
     inkscape:label="Layer 1"
     inkscape:groupmode="layer"
     id="layer1"
     transform="translate(-6.1629528,-2.7722329)">
    <path
       style="fill:none;stroke:#000000;stroke-width:5;stroke-linecap:round;stroke-linejoin:round;stroke-miterlimit:4;stroke-opacity:1;stroke-dasharray:none"
       d="m 30,135.36218 c 0,1.91362 -1.921974,-6.23408 -1,-9 2.96405,-8.89214 0.832396,-19.32958 3,-27.999997 1.348516,-5.394066 -0.730122,-11.693329 1,-17 5.339437,0.988268 10.849379,1.141563 16,2 9.400013,1.566668 20.462971,0 30,0 15.145811,0 30.66345,1 46,1 41.17721,0 81.84926,1 123,1 15,0 30,0 45,0 6.51428,0 13.54428,0.806964 20,0 59.77217,-7.471521 120.25231,-6 181,-6 23,0 46,0 69,0 10.21408,0 20.82637,-0.847803 31,0 8.75078,0.729232 18.38825,-0.324885 27,1 2.39848,0.368997 4.59769,1.656812 7,2 6.61868,0.945525 14.28124,0.520089 21,1 6.84578,0.488984 14.22358,-1.042526 21,0 2.08367,0.320564 3.91633,1.679435 6,2 8.81543,1.356219 18.51679,0 27,0 l 0,5 c 0,-1.666667 1.66667,-5 0,-5 -3,0 0,6 0,9 0,2.64239 0.0822,17.164347 1,18.999997 1.38758,2.77516 2,8.90273 2,12 0,1.99703 -0.84433,6.31134 0,8 0.13017,0.26035 1.78173,1.21828 1,2 -1.89392,1.89392 -16.09333,1.21867 -20,2 -5.09237,1.01848 -12.14649,-0.61783 -17,1 -10.50309,3.50103 -29.18728,1 -41,1 -18.75777,0 -37.19655,-1 -56,-1 -14.93805,0 -30.2703,0.84122 -45,-1 -6.42269,-0.80283 -13.75875,1.56032 -20,0 -1.16597,-0.29149 -1.82677,-1.73928 -3,-2 -0.73333,-0.16296 -9.77778,0.13581 -11,0 -8.28339,-0.92037 -16.67802,-1.07533 -25,-2 -13.97675,-1.55297 -30.18614,-0.72673 -44,1 -4.92513,0.61564 -10.06609,-0.54821 -15,0 -16.07893,1.78655 -32.75912,2 -49,2 -20.9859,0 -42.1729,0.73559 -63,-1 -6.54368,-0.5453 -13.50355,0.92807 -20,0 -2.40231,-0.34319 -4.59769,-1.65681 -7,-2 -4.61976,-0.65996 -9.34945,0.38755 -14,0 -6.3259,-0.52716 -12.69362,-1.2117 -19,-2 -12.0094,-1.50117 -42.57173,-0.90471 -54,1 -12.35443,2.05907 -28.19674,0 -41,0 -12.12383,0 -24.06925,0.50866 -36,2 -20.072494,2.50906 -41.083831,-2.31936 -61,1 -5.187376,0.86457 -10.845401,-1.05485 -16,0 z"
       id="path4267"
       inkscape:connector-curvature="0" />
    <path
       style="fill:none;stroke:#000000;stroke-width:5;stroke-linecap:round;stroke-linejoin:round;stroke-miterlimit:4;stroke-opacity:1;stroke-dasharray:none"
       d="m 45,82.362183 c 13.320137,-2.009462 30.651589,-2.060636 43,-7 5.816031,-2.326413 11.067607,-4.516902 17,-6 5.0872,-1.271801 10.9168,0.2708 16,-1 7.92698,-1.981745 15.96647,-2.393293 24,-4 10.189,-2.0378 19.75653,-4.292755 30,-6 3.71121,-0.618536 7.71814,-3.343628 11,-4 6.26514,-1.253029 12.80346,-2.760693 19,-4 6.22195,-1.24439 14.01903,0.993655 20,-1 0.31623,-0.10541 -0.29814,-0.850929 0,-1 3.50111,-1.750554 11.94455,-0.324092 16,-1 18.32966,-3.054943 36.79746,-4.359493 55,-8 12.54103,-2.508207 25.35307,-2.892179 38,-5 3.08093,-0.513489 5.93567,-2.387134 9,-3 6.22445,-1.24489 13.23303,-1.077678 19,-3 6.00173,-2.000577 13.07732,-1.025772 19,-3 0.63048,-0.21016 7.4645,0 5,0 12.82776,4.113633 25.69136,7.781892 39,10 6.72866,1.121444 13.34503,5.049289 20,6 2.80002,0.400003 5.39477,0.13159 8,1 0.31623,0.105409 -0.31623,0.89459 0,1 3.46658,1.155526 7.41147,0.282294 11,1 9.0129,1.80258 17.91054,3.485089 27,5 10.109,1.684833 19.84332,4.549046 30,6 4.38038,0.625769 8.61064,3.26844 13,4 5.50797,0.917994 11.64434,1.661085 17,3 0.32338,0.08084 -0.32338,0.919154 0,1 17.08372,4.270929 35.91035,0.582069 53,4 14.1796,2.835919 28.03203,9.206405 42,12 3.81754,0.763508 7.28861,0.76287 11,2 3.74563,1.248543 9.50984,-1.745081 13,0 2.4714,1.235702 -0.34518,1 2,1"
       id="path4273"
       inkscape:connector-curvature="0" />
    <path
       style="fill:none;stroke:#000000;stroke-width:5;stroke-linecap:round;stroke-linejoin:round;stroke-miterlimit:4;stroke-opacity:1;stroke-dasharray:none"
       d="m 52,134.36218 c 5.651346,9.30707 0.362131,19.44853 3,30 0.780817,3.12327 1,4.71276 1,8 0,3.3071 -1.037634,8.8871 0,12 2.406224,7.21867 2.648173,33.75914 1,42 -1.538462,7.69231 1.538462,16.30769 0,24 -1.602577,8.01289 -2.673857,20.63072 -1,29 1.91223,9.56115 -1.340292,20.63883 1,30 2.967307,11.86923 1,26.54976 1,39 0,9.40694 1,18.92254 1,28 0,7.28108 -1.771129,17.91549 0,25 1.298142,5.19257 1,-1.06754 1,4 0,3.33334 0,6.66667 0,10 0,1.66667 0,6.66667 0,5 0,-0.66666 0,-2.66666 0,-2 0,1.40136 -2.602276,11.39773 -1,13 0.781726,0.78173 1.73965,-0.86982 2,-1 1.267456,-0.63373 4.551818,0 6,0 8.318988,0 17.84859,1.35857 26,0 7.25437,-1.20906 14.72025,-2 22,-2 7.97014,0 42.46273,-0.26863 47,2 1.46995,0.73498 0.39071,-1 2,-1 4.33333,0 8.66667,0 13,0 1.75881,0 8.69636,2.30364 10,1 0.66667,-0.66666 2.33333,-0.33333 3,-1 1.59525,-1.59525 -1,-7.37738 -1,-9 0,-5.22851 0.10251,-18.79498 -2,-23 -2.10341,-4.20681 0.3862,-18.45522 -1,-24 -1.58331,-6.33324 -0.032,-15.80773 1,-22 1.51266,-9.07596 0,-14.15182 0,-20 0,-11.46935 -1.14285,-22.8571 -3,-34 -0.53125,-3.18747 0.78184,-6.87264 0,-10 -2.25216,-9.00862 -2.18945,-18.94725 -4,-28 -0.51225,-2.56124 0.42956,-5.42262 0,-8 -1.53461,-9.20766 -2,-19.64678 -2,-29 0,-5.12016 0.83983,-10.96101 0,-16 -1.53498,-9.20988 -2,-19.71959 -2,-29 0,-6.62822 1.61004,-15.55984 0,-22 -1.2357,-4.94281 -1,2.09273 -1,-2 0,-1.95838 0,-10.35997 0,-9 1.34466,-4.58843 1,-9.28814 1,-14"
       id="path4275"
       inkscape:connector-curvature="0" />
    <path
       style="fill:none;stroke:#000000;stroke-width:5;stroke-linecap:round;stroke-linejoin:round;stroke-miterlimit:4;stroke-opacity:1;stroke-dasharray:none"
       d="m 229,131.36218 c 2.59521,28.35351 9.40702,56.25613 13,85 0.79496,6.3597 0.94872,12.69235 2,19 1.89189,11.35135 -1.89189,23.64865 0,35 0.85521,5.13127 1.76245,10.66287 1,16 -0.5603,3.92211 -1.68778,7.87332 -1,12 1.14742,6.88454 1.00719,14.05032 2,21 2.20064,15.40446 5,31.3645 5,47 0,9.04454 -1.16973,62.83027 0,64 0.85058,0.85058 13.82754,1 16,1 13.90001,0 29.22117,1.72236 43,0 5.88614,-0.73576 14.86687,-2.53328 21,-1 2.27857,0.56964 5.71756,2 8,2 6.27772,0 12.82364,0.76473 19,2 1.30744,0.26149 4,-1.33333 4,0 0,0.33334 -1,0.33334 -1,0 0,-1.31801 1,-4.03455 1,-6 0,-4.78992 -0.78287,-10.3028 0,-15 2.47278,-14.8367 5,-29.78752 5,-45 0,-7.66018 -0.76626,-14.59759 -2,-22 -0.54054,-3.24324 0.54054,-6.75675 0,-10 -1.92085,-11.52513 -2.34551,-23.41855 -4,-35 -1.58497,-11.09477 0,-23.76327 0,-35 0,-15.36982 -1,-30.50299 -1,-46 0,-17.14963 -1,-34.00961 -1,-51 0,-6.11885 -1,-12.57837 -1,-19 0,-5.3573 1,-16.39663 1,-12"
       id="path4277"
       inkscape:connector-curvature="0" />
    <path
       style="fill:none;stroke:#000000;stroke-width:5;stroke-linecap:round;stroke-linejoin:round;stroke-miterlimit:4;stroke-opacity:1;stroke-dasharray:none"
       d="m 397,135.36218 c 0.9094,3.43897 -0.86269,7.54925 0,11 5.02589,20.10354 3,42.93123 3,64 0,6.02747 1.4582,14.16722 0,20 -1.93155,7.72618 0.56662,16.1669 -1,24 -0.89252,4.46259 -1.95224,10.23879 -1,15 1.19396,5.96983 0.003,12.01985 1,18 1.24648,7.47886 2.2747,17.35181 1,25 -2.75013,16.50076 -1.70474,44.77158 1,61 0.64429,3.86575 0.19007,8.42978 -1,12 -0.17351,0.52053 1.64649,14.23246 2,16 0.95837,4.79186 4,14.83453 4,19 0,2.61655 -0.62834,13.25668 -1,14 -0.21082,0.42164 -1,0.5286 -1,1 0,1.72574 11.78946,2 15,2 9.91679,0 34.65704,2.08574 43,0 10.26481,-2.5662 21.09757,-4 32,-4 9.66667,0 19.33333,0 29,0 3,0 6,0 9,0 1,0 3,1 3,0 0,-2.08088 -1.40237,-0.40237 -2,-1 -1.31304,-1.31303 -2.59224,-4.9612 -3,-7 -1.42302,-7.11507 1,-14.85998 1,-22 0,-13.54874 0.19585,-26.82491 -2,-40 -1.14342,-6.86049 0.14343,-14.1394 -1,-21 -4.06475,-24.3885 -4.49822,-49.48753 -8,-74 -1.49713,-10.47992 1.32184,-23.03448 -2,-33 -2.08223,-6.24668 0.41486,-30.51084 -1,-39 -1.81622,-10.89734 -2.43859,-22.0701 -4,-33 -0.51333,-3.59333 0.51333,-7.40666 0,-11 -0.83079,-5.81555 -2,-12.08578 -2,-18"
       id="path4279"
       inkscape:connector-curvature="0" />
    <path
       style="fill:none;stroke:#000000;stroke-width:5;stroke-linecap:round;stroke-linejoin:round;stroke-miterlimit:4;stroke-opacity:1;stroke-dasharray:none"
       d="m 556,138.36218 c -0.84832,5.02404 -1.8561,10.86338 -1,16 1.88778,11.32671 5.74696,21.7348 8,33 1.20837,6.04187 1.78984,11.94919 3,18 2.55961,12.79804 -1.38435,32.6939 1,47 1.09145,6.54869 -0.0903,13.45833 1,20 0.95294,5.71763 2.85527,18.01314 2,24 -0.89887,6.29211 -0.46764,12.87055 -2,19 -1.33218,5.32873 0.90567,11.56596 0,17 -0.82106,4.92636 -0.18007,10.08045 -1,15 -1.40003,8.40017 -2.69254,16.53731 -1,25 1.41146,7.05729 -1.18414,14.89517 0,22 1.4211,8.52659 2,17.24749 2,26 0,3.60654 -1,6.39346 -1,10 0,1 1,3 0,3 -0.33333,0 -0.33333,-1 0,-1 2.71672,0 6.58861,2 10,2 1.65738,0 2.70425,1.32394 4,1 6.61202,-1.653 16.13377,-3 23,-3 8.24409,0 18.36765,1.45589 26,4 3.49229,1.1641 8.36484,0.0912 12,1 2.56251,0.64063 2.20393,-0.40131 4,-1 0.98331,-0.32777 16.3523,-2 18,-2 5.77746,0 20,-0.72929 20,0 0,0.33334 -1.33333,0 -1,0 1.33333,0 4,-1.33333 4,0 0,0.5625 -2.03991,-1.96009 -1,-3 2.10345,-2.10344 1,-10.16232 1,-14 0,-1.94819 -1,-4.37109 -1,-6 0,-0.74535 0.81922,-1.2769 1,-2 1.5475,-6.18999 -2.0095,-13.97148 0,-20 1.03473,-3.10417 1,-5.6511 1,-9 0,-10.17498 -0.32646,-20.95876 -2,-31 -0.5924,-3.55438 0.70597,-7.47014 0,-11 -2.04497,-10.22483 -1.94955,-20.74774 -4,-31 -0.8386,-4.19301 -0.1614,-8.80698 -1,-13 -0.80142,-4.00711 -1.32934,-7.97605 -2,-12 -0.80878,-4.85267 0.96394,-10.18031 0,-15 -3.2983,-16.4915 -1,-35.93588 -1,-53 0,-28.27132 -2,-55.84347 -2,-84"
       id="path4281"
       inkscape:connector-curvature="0" />
    <text
       xml:space="preserve"
       style="font-size:40px;font-style:normal;font-weight:normal;line-height:125%;letter-spacing:0px;word-spacing:0px;fill:#000000;fill-opacity:1;stroke:none;font-family:Sans"
       x="70"
       y="238.048"
       id="text4791"
       sodipodi:linespacing="125%"
       transform="translate(6.1629528,2.7722329)"><tspan
         sodipodi:role="line"
         id="tspan4793"></tspan></text>
    <path
       style="fill:none;stroke:#000000;stroke-width:5;stroke-linecap:round;stroke-linejoin:round;stroke-opacity:1;stroke-miterlimit:4;stroke-dasharray:none"
       d="m 267,221.048 c -3.85069,1.44204 -10.27323,0.54645 -12,4 -3.73975,7.4795 -0.74155,11.62923 6,15 0.59862,0.29932 8,-0.22479 8,0 0,0.33334 -1,0.33334 -1,0 0,-0.4714 0.57836,-0.78918 1,-1 1.22661,-0.6133 3,-2.41967 3,-4 0,-7.42683 3.12551,-7.49959 -5,-14 z"
       id="path4818"
       inkscape:connector-curvature="0"
       transform="translate(6.1629528,2.7722329)" />
    <path
       style="fill:none;stroke:#000000;stroke-width:5;stroke-linecap:round;stroke-linejoin:round;stroke-opacity:1;stroke-miterlimit:4;stroke-dasharray:none"
       d="m 272,229.048 c 1.14369,-2.86094 1,-5.10739 1,-8 0,-2.47494 -0.0666,-2.9334 1,-4 0.74744,-0.74743 -1,-2.91215 -1,-4 0,-4 0,-8 0,-12 0,-1.48452 0,-9.80072 0,-8"
       id="path4820"
       inkscape:connector-curvature="0"
       transform="translate(6.1629528,2.7722329)" />
    <path
       style="fill:none;stroke:#000000;stroke-width:5;stroke-linecap:round;stroke-linejoin:round;stroke-opacity:1;stroke-miterlimit:4;stroke-dasharray:none"
       d="m 302,215.048 c -7.15153,-2.60286 -13.17551,4.8245 -9,9 0.4714,0.47141 -0.4714,1.5286 0,2 0.87008,0.87009 5.78765,1.78765 7,3 1.57016,1.57016 8,-1.58208 8,0 0,0.33334 -1,0.33334 -1,0 0,-1.97011 3.41862,-2.16275 2,-5 -2.45233,-4.90466 -0.68114,-5.20868 -7,-9 z"
       id="path4824"
       inkscape:connector-curvature="0"
       transform="translate(6.1629528,2.7722329)" />
    <path
       style="fill:none;stroke:#000000;stroke-width:5;stroke-linecap:round;stroke-linejoin:round;stroke-opacity:1;stroke-miterlimit:4;stroke-dasharray:none"
       d="m 306,216.048 c -0.33333,-1.33333 -0.73046,-2.65232 -1,-4 -0.32391,-1.61955 2.1775,-10.46749 1,-14 -1.19085,-3.57255 -2.14448,-16.71104 -1,-19 0.78652,-1.57304 1,-1.13376 1,-3"
       id="path4826"
       inkscape:connector-curvature="0"
       transform="translate(6.1629528,2.7722329)" />
    <path
       style="fill:none;stroke:#000000;stroke-width:5;stroke-linecap:round;stroke-linejoin:round;stroke-opacity:1;stroke-miterlimit:4;stroke-dasharray:none"
       d="m 270,194.048 c 1.33333,-0.33333 3.66667,-2.33333 4,-1 0.33333,1.33334 -4.97183,1.97183 -4,1 1.89115,-1.89115 18.29337,-9.14668 22,-11 0.59628,-0.29814 1.5286,0.47141 2,0 1.16667,-1.16666 3.83333,-0.83333 5,-2 0.96217,-0.96216 4.62937,-4 6,-4"
       id="path4828"
       inkscape:connector-curvature="0"
       transform="translate(6.1629528,2.7722329)" />
    <path
       style="fill:none;stroke:#000000;stroke-width:5;stroke-linecap:round;stroke-linejoin:round;stroke-opacity:1;stroke-miterlimit:4;stroke-dasharray:none"
       d="m 271,284.048 c -6.10483,6.17683 0.0683,21.86344 -3,28 -0.78652,1.57305 -1,1.13376 -1,3 0,2.10138 1,3.71291 1,6 0,1 -1,3 0,3 0.58377,0 16,-4.59574 16,-3 0,0.33334 -1,0.33334 -1,0 0,-0.88482 1.74167,-1.51665 1,-3 -1.94171,-3.88341 -0.0591,-9.11827 -2,-13 -1.64816,-3.29631 0,-12.20677 0,-16 0,-1.66666 0,-3.33333 0,-5 0,-0.33333 0,-1.33333 0,-1 0,0.66667 -0.66667,2 0,2 0.74536,0 0.47295,-1.47295 1,-2 0.39878,-0.39877 6.34196,-1 7,-1 2.66667,0 5.33333,0 8,0 0.66667,0 2,0.66667 2,0 0,-0.4714 -0.78918,-0.57836 -1,-1 -1.42844,-2.85687 1,-7.12322 1,-9 0,-2 -2,-6 0,-6 0.33333,0 0.33333,1 0,1 -0.73528,0 -2.6481,-1 -4,-1 -4.05316,0 -5.446,1 -10,1 -2,0 -6,2 -6,0 0,-0.33333 0.7643,0.23571 1,0 0.16004,-0.16004 -1,-1.8817 -1,-3 0,-1.44502 1,-5.13207 1,-8 0,-0.61024 0.38964,-3.61036 0,-4 -0.4714,-0.4714 -2.66667,0 -2,0 0.66667,0 2.66667,0 2,0 -2.33333,0 -4.66667,0 -7,0 -0.33333,0 -1.33333,0 -1,0 5.96568,0 -2.50206,-0.49794 -3,0 -0.5,0.5 0.5,2.5 0,3 -3.16951,3.16951 -3.28143,9.56286 -4,11 -0.56979,1.13958 -9.61474,1.30738 -11,2 -1.22927,0.61464 -5.37437,1 -4,1 0.66667,0 2,-0.66666 2,0 0,0.74536 -1.47295,0.47296 -2,1 -1.43372,1.43373 1,3.97242 1,6 0,1.76524 -1.67286,7.32714 0,9 0.61544,0.61544 14.92254,-0.32042 19,-1 z"
       id="path4830"
       inkscape:connector-curvature="0"
       transform="translate(6.1629528,2.7722329)" />
    <path
       style="fill:none;stroke:#000000;stroke-width:5;stroke-linecap:round;stroke-linejoin:round;stroke-opacity:1;stroke-miterlimit:4;stroke-dasharray:none"
       d="m 293,390.048 c -1.94576,-8.91214 -3,-17.82787 -3,-27 0,-3.66666 0,-7.33333 0,-11 0,-0.41176 0.26471,-2.73529 0,-3 -0.2357,-0.2357 -1.33333,0 -1,0 2.30942,0 25,-0.76403 25,0 0,0.33334 -1.33333,0 -1,0 2.49005,0 3.61584,-1.20527 6,-2 1.58114,-0.52704 6.66667,0 5,0 -0.66667,0 -2,-0.66666 -2,0 0,0.74536 1.47295,0.47296 2,1 1.12336,1.12336 0.31329,10.43356 0,12 -1.08496,5.4248 -5.3988,14.40482 -4,20 0.7822,3.12882 -0.71009,6.15965 1,13 0.27068,1.08272 2.23431,4.76569 1,6 -0.73421,0.73422 -8.88611,-1.52847 -11,-1 -5.51098,1.37775 -12.58783,3.70609 -18,1 -0.18349,-0.0917 -3,0.0734 -3,0 0,-0.33333 0.7643,0.23571 1,0 0.40611,-0.4061 -0.79531,-1.61406 0,-4 0.56765,-1.70293 1.33333,-3.33333 2,-5 z"
       id="path4832"
       inkscape:connector-curvature="0"
       transform="translate(6.1629528,2.7722329)" />
    <path
       style="fill:none;stroke:#000000;stroke-width:5;stroke-linecap:round;stroke-linejoin:round;stroke-opacity:1;stroke-miterlimit:4;stroke-dasharray:none"
       d="m 289,346.048 c 1,-1.33333 1.66667,-5 3,-4 1.33333,1 -4.17851,5.17852 -3,4 4.01958,-4.01958 5.51019,-7.51019 8,-10 2.07149,-2.07149 13.57576,0 19,0 3.90665,0 9.24844,0 10,0 0.66667,0 2,-0.66666 2,0 0,0.33334 -1.33333,0 -1,0 0.77778,0 2.77778,1 2,1 -0.33333,0 0.2357,-1.2357 0,-1 -1.79805,1.79806 -6.22806,10 -8,10"
       id="path4834"
       inkscape:connector-curvature="0"
       transform="translate(6.1629528,2.7722329)" />
    <path
       style="fill:none;stroke:#000000;stroke-width:5;stroke-linecap:round;stroke-linejoin:round;stroke-opacity:1;stroke-miterlimit:4;stroke-dasharray:none"
       d="m 330,335.048 c 1.69674,17.18215 4.32654,41.51019 -4,54 -2.07338,3.11008 -2.95916,7 -4,7"
       id="path4836"
       inkscape:connector-curvature="0"
       transform="translate(6.1629528,2.7722329)" />
    <path
       style="fill:none;stroke:#000000;stroke-width:5;stroke-linecap:round;stroke-linejoin:round;stroke-opacity:1;stroke-miterlimit:4;stroke-dasharray:none"
       d="m 292,343.048 c 9.96854,2.0559 23.9864,0 28,0"
       id="path4838"
       inkscape:connector-curvature="0"
       transform="translate(6.1629528,2.7722329)" />
    <path
       style="fill:none;stroke:#000000;stroke-width:5;stroke-linecap:round;stroke-linejoin:round;stroke-opacity:1;stroke-miterlimit:4;stroke-dasharray:none"
       d="m 294,337.048 c 7.23654,3.66825 16.70991,-1.43003 24,1 4.90346,1.63449 4.41723,2 9,2"
       id="path4840"
       inkscape:connector-curvature="0"
       transform="translate(6.1629528,2.7722329)" />
    <path
       style="fill:none;stroke:#000000;stroke-width:5;stroke-linecap:round;stroke-linejoin:round;stroke-opacity:1;stroke-miterlimit:4;stroke-dasharray:none"
       d="m 324,385.048 c 0,-1.87354 -1,-2.87354 -1,-1 0,0.8383 1,-3.77117 1,-5 0,-0.58992 -0.69566,-13.39131 -1,-14 -1.11901,-2.23803 -2,-7.43067 -2,-10 0,-9.04247 6.00318,-11.83417 5,-10 1,1.66667 2,3.33334 3,5 0.33333,0 0.85093,-0.29814 1,0 1.13531,2.27062 -0.61296,6.54814 0,9 0.43797,1.75187 4.0893,11.91071 2,14 -0.60758,0.60759 -2,3.04188 -2,4"
       id="path4842"
       inkscape:connector-curvature="0"
       transform="translate(6.1629528,2.7722329)" />
    <path
       style="fill:none;stroke:#000000;stroke-width:5;stroke-linecap:round;stroke-linejoin:round;stroke-miterlimit:4;stroke-opacity:1;stroke-dasharray:none"
       d="m 492.16295,320.82023 c 0,1.95929 -1.0243,-5.0243 -4,-8 -4.08948,-4.08948 -10.43639,-5.43639 -14,-9 -2.06375,-2.06375 -16.80684,2.80684 -17,3 -1.56151,1.56152 -2.22174,2.22174 -5,5 -2.14906,2.14906 -2.02603,5.02603 -5,8 -1.05409,1.0541 3.33333,-3.33333 2,-4 -1.33333,-0.66666 -1.33333,2.66667 -2,4 2.33333,0.66667 4.64575,1.41144 7,2 2.2291,0.55728 1.71852,-1 4,-1 6.96822,0 10.87092,1.93547 17,5 1.41273,0.70637 2.03229,0.0323 3,1 2.45537,2.45538 5.33561,6.66781 6,7 0.75559,0.3778 2.76736,1 1,1 2.74631,10.98526 -3,9.5038 -3,13 0,0.21564 5.90992,-1.90991 6,-2 1.11859,-1.11858 3.31247,-1.31247 4,-2 2.94464,-2.94464 6.74495,-5.74494 10,-9 0.69611,-0.6961 6.05799,-2.94201 5,-4 -1.97075,-1.97075 -7.6868,4.31321 -10,2 -1.6724,-1.6724 0.24991,-11.82646 -5,-12 z"
       id="path4844"
       inkscape:connector-curvature="0" />
    <path
       style="fill:none;stroke:#000000;stroke-width:5;stroke-linecap:round;stroke-linejoin:round;stroke-miterlimit:4;stroke-opacity:1;stroke-dasharray:none"
       d="m 465.16295,308.82023 c -0.33333,1.33334 0.33333,4.33334 -1,4 -1.33333,-0.33333 0.0282,-4.97182 1,-4 1.17851,1.17852 -0.32686,3.3657 0,5 0.022,0.10999 2.96573,2.03428 4,1 0.2357,-0.2357 -0.33333,-1 0,-1 0.33333,0 0.20823,1.26029 0,1 -1.50158,-1.87697 -2.66667,-4 -4,-6 z"
       id="path4846"
       inkscape:connector-curvature="0" />
    <path
       style="fill:none;stroke:#000000;stroke-width:5;stroke-linecap:round;stroke-linejoin:round;stroke-miterlimit:4;stroke-opacity:1;stroke-dasharray:none"
       d="m 454.16295,306.82023 c -6.74882,-1.46901 -13.81129,-3.09435 -20,0 -0.83259,0.4163 -3.36569,-0.63431 -4,0 -1.94404,1.94405 -3.66742,3.66742 -6,6 -1.16949,1.16949 -3.56954,3.13908 -4,4 -1.57661,3.15321 -1.6163,9.2326 -3,12 -0.67405,1.3481 -1.66493,8.33507 0,10 1.83011,1.83011 4.1068,5.1068 6,7 1.7996,1.79961 12.3263,5.3263 13,6 2.11801,2.11801 5.38045,2.55218 9,4 7.83225,3.1329 24.88641,10.11359 28,7 0.67321,-0.67321 0.52744,-1.26372 2,-2 1.97914,-0.98957 4.51058,-1.51058 6,-3 0.4714,-0.4714 1.5286,0.47141 2,0 2.57802,-2.57802 11,-7.04263 11,-14"
       id="path4848"
       inkscape:connector-curvature="0" />
    <path
       style="fill:none;stroke:#000000;stroke-width:5;stroke-linecap:round;stroke-linejoin:round;stroke-miterlimit:4;stroke-opacity:1;stroke-dasharray:none"
       d="m 435.16295,290.82023 c 1,-1.33333 1.95884,-2.69855 3,-4 3.02315,-3.77893 8.45849,-7.37546 10,-12 1.36084,-4.08252 4.38887,-10.38886 7,-13 1.61657,-1.61657 3,-23.29492 3,-27"
       id="path4850"
       inkscape:connector-curvature="0" />
    <path
       style="fill:none;stroke:#000000;stroke-width:5;stroke-linecap:round;stroke-linejoin:round;stroke-miterlimit:4;stroke-opacity:1;stroke-dasharray:none"
       d="m 472.16295,236.82023 c -1.33998,16.5825 1.56149,34.12298 9,49 0.93601,1.87203 3.52466,2.52466 5,4"
       id="path4852"
       inkscape:connector-curvature="0" />
    <path
       style="fill:none;stroke:#000000;stroke-width:5;stroke-linecap:round;stroke-linejoin:round;stroke-miterlimit:4;stroke-opacity:1;stroke-dasharray:none"
       d="m 456.16295,232.82023 c -10.0046,5.69538 -14.61307,3.54773 -17,-6 -0.3525,-1.41001 -2.00366,-2.99268 -1,-5 0.59344,-1.18688 1.45185,-2.45185 2,-3 0.24753,-0.24753 4,-0.43651 4,-1 0,-1.61322 -9.05432,-3.16297 -10,-6 -0.71174,-2.13523 -0.4882,-9.51179 1,-11 2.99879,-2.99879 3.39491,-10.07005 11,-5 1.90135,1.26757 3.34965,1.17483 5,2 1.73845,0.86923 4.94365,5 3,5 -1.66667,0 2.47295,-2.41886 3,-4 0.74784,-2.24351 3.17337,-9.41331 6,-8 5.01653,2.50827 9.59465,2.59466 14,7 1.52336,1.52336 -2,3.1734 -2,4 0,1.69968 3.35107,-0.58776 5,-1 2.19346,-0.54836 15.83376,-2.58312 17,-2 2.77256,1.38628 0.69303,17.30698 -1,19 -1.05409,1.0541 -5.05409,0.94591 -4,2 2.53605,2.53605 8.6248,0.62481 11,3 0.80437,0.80437 3.02941,3.02941 4,4 2.66384,2.66385 -26,9.87379 -26,8 0,-2.69397 15.00201,-1.00401 12,5 -3.66558,7.33117 -17.2761,-3 -20,-3"
       id="path4854"
       inkscape:connector-curvature="0" />
    <path
       style="fill:none;stroke:#000000;stroke-width:5;stroke-linecap:round;stroke-linejoin:round;stroke-opacity:1;stroke-miterlimit:4;stroke-dasharray:none"
       d="m 69,229.048 c 1.333333,0 4,-1.33333 4,0 0,1.33334 -4.942809,0.94281 -4,0 1.470953,-1.47095 11.447632,0 15,0 2.441103,0 10.023897,0 9,0"
       id="path4856"
       inkscape:connector-curvature="0"
       transform="translate(6.1629528,2.7722329)" />
    <path
       style="fill:none;stroke:#000000;stroke-width:5;stroke-linecap:round;stroke-linejoin:round;stroke-opacity:1;stroke-miterlimit:4;stroke-dasharray:none"
       d="m 136,229.048 c 8.91901,-5.60387 14.66215,-3 24,-3"
       id="path4858"
       inkscape:connector-curvature="0"
       transform="translate(6.1629528,2.7722329)" />
    <path
       style="fill:none;stroke:#000000;stroke-width:5;stroke-linecap:round;stroke-linejoin:round;stroke-opacity:1;stroke-miterlimit:4;stroke-dasharray:none"
       d="m 70,226.048 c 2.368552,-0.34069 7.291073,-25 8,-25 1.889949,0 13,29.56783 13,31"
       id="path4860"
       inkscape:connector-curvature="0"
       transform="translate(6.1629528,2.7722329)" />
    <path
       style="fill:none;stroke:#000000;stroke-width:5;stroke-linecap:round;stroke-linejoin:round;stroke-opacity:1;stroke-miterlimit:4;stroke-dasharray:none"
       d="m 134,228.048 c 1.84377,-4.44833 4.80249,-29.40124 8,-31 2.24944,-1.12472 7,11.85772 7,14 0,10.46296 5,8.55259 5,18"
       id="path4862"
       inkscape:connector-curvature="0"
       transform="translate(6.1629528,2.7722329)" />
    <path
       style="fill:none;stroke:#000000;stroke-width:5;stroke-linecap:round;stroke-linejoin:round;stroke-opacity:1;stroke-miterlimit:4;stroke-dasharray:none"
       d="m 75,199.048 c 4.666667,0 9.333333,0 14,0 11.36841,0 22.01586,-1 33,-1 4.52411,0 10.17228,0.91386 14,-1 2.63735,-1.31867 8.09712,0 7,0 -0.66667,0 -1.33333,0 -2,0"
       id="path4864"
       inkscape:connector-curvature="0"
       transform="translate(6.1629528,2.7722329)" />
    <path
       style="fill:none;stroke:#000000;stroke-width:5;stroke-linecap:round;stroke-linejoin:round;stroke-opacity:1;stroke-miterlimit:4;stroke-dasharray:none"
       d="m 113,200.048 c -0.33333,1.33334 -0.66667,2.66667 -1,4 -0.33333,0.33334 -0.78918,0.57837 -1,1 -0.49133,0.98267 1,24.00009 1,28 0,2.23793 1,3.94684 1,6 0,0.33334 0,1.33334 0,1 0,-0.66666 0.4714,-2.4714 0,-2 -1.10541,1.10541 -1,2.64503 -1,4"
       id="path4866"
       inkscape:connector-curvature="0"
       transform="translate(6.1629528,2.7722329)" />
    <path
       style="fill:none;stroke:#000000;stroke-width:5;stroke-linecap:round;stroke-linejoin:round;stroke-opacity:1;stroke-miterlimit:4;stroke-dasharray:none"
       d="m 100,243.048 c 9.90277,-0.0615 23.09955,-1.96681 29,0 3.44721,1.14908 0.74076,1 3,1"
       id="path4868"
       inkscape:connector-curvature="0"
       transform="translate(6.1629528,2.7722329)" />
    <g
       id="g4890"
       transform="translate(15,-8.75)">
      <path
         transform="translate(6.1629528,2.7722329)"
         inkscape:connector-curvature="0"
         id="path4870"
         d="m 68,338.048 c -2.032915,-6.87309 -0.458796,-13.5412 3,-17 0.692855,-0.69285 4.307145,-0.30714 5,-1 1.515764,-1.51576 4.578994,-1.2105 7,0 4.480747,2.24038 6,12.22587 6,17 0,1.10014 0,8.33685 0,6"
         style="fill:none;stroke:#000000;stroke-width:5;stroke-linecap:round;stroke-linejoin:round;stroke-miterlimit:4;stroke-opacity:1;stroke-dasharray:none" />
      <path
         transform="translate(6.1629528,2.7722329)"
         inkscape:connector-curvature="0"
         id="path4872"
         d="m 88,330.048 c 1.109317,-5.01809 3.432662,-8.43266 6,-11 0.420676,-0.42067 3.633728,0.18314 4,0 1.099658,-0.54982 4.00792,-1.99207 6,0 0.94536,0.94536 2.16343,3.16343 3,4 0.40164,0.40164 -0.18852,2.43443 0,3 1.93623,5.8087 0.25704,5.77113 1,8 0.10541,0.31623 1,-0.33333 1,0 0,0.47141 -0.78918,0.57837 -1,1 -1.06003,2.12007 0,7.57715 0,10"
         style="fill:none;stroke:#000000;stroke-width:5;stroke-linecap:round;stroke-linejoin:round;stroke-miterlimit:4;stroke-opacity:1;stroke-dasharray:none" />
      <path
         transform="translate(6.1629528,2.7722329)"
         inkscape:connector-curvature="0"
         id="path4874"
         d="m 110,332.048 c 0.77879,-4.71571 8.18929,-17.40535 13,-15 0.84327,0.42164 1.15673,1.57837 2,2 0.59628,0.29815 1.5286,-0.4714 2,0 3.44495,3.44496 0.50123,15.50123 2,17 1.33333,1.33334 1,-1.66666 1,1 0,2.21975 -1,8.11563 -1,6"
         style="fill:none;stroke:#000000;stroke-width:5;stroke-linecap:round;stroke-linejoin:round;stroke-miterlimit:4;stroke-opacity:1;stroke-dasharray:none" />
      <path
         transform="translate(6.1629528,2.7722329)"
         inkscape:connector-curvature="0"
         id="path4878"
         d="m 76,301.548 c -3.1815,0.71568 -6.050814,2.89838 -4.25,6.5 0.348211,0.69643 0.135252,1.88526 0.75,2.5 1.072015,1.07202 2.614307,1.28811 4,1.75 0.455955,0.15199 0.774381,-0.25 1.25,-0.25 0.854049,0 2.700567,-0.20056 3.25,-0.75 0.457307,-0.4573 0.233955,-1.46791 0.5,-2 0.03727,-0.0745 0.212732,0.0745 0.25,0 0.08237,-0.16474 0.151724,-2.34827 0,-2.5 -0.663104,-0.6631 -1.868394,-3.55919 -2.75,-4 -1.037033,-0.51851 -1.682103,-0.98642 -3,-1.25 z"
         style="fill:none;stroke:#000000;stroke-width:5;stroke-linecap:round;stroke-linejoin:round;stroke-miterlimit:4;stroke-opacity:1;stroke-dasharray:none" />
      <path
         transform="translate(6.1629528,2.7722329)"
         inkscape:connector-curvature="0"
         id="path4882"
         d="m 95,303.548 c -4.47396,1.98362 -3.413559,4.17289 -1.5,8 0.276888,0.55378 0.569126,1.56913 1,2 0.155234,0.15524 2.281089,0.46892 2.5,0.25 0.584,-0.584 4.57733,-1.91366 5.75,-2.5 0.14907,-0.0745 0.38215,0.11786 0.5,0 0.52524,-0.52524 -0.09,-1.93 -0.25,-2.25 -0.26388,-0.52776 -0.0789,-1.82886 -0.5,-2.25 -1.80134,-1.80134 -4.528864,-3.74519 -7.5,-3.25 z"
         style="fill:none;stroke:#000000;stroke-width:5;stroke-linecap:round;stroke-linejoin:round;stroke-miterlimit:4;stroke-opacity:1;stroke-dasharray:none" />
      <path
         transform="translate(6.1629528,2.7722329)"
         inkscape:connector-curvature="0"
         id="path4884"
         d="m 120,304.298 c -1.39982,-0.49596 -2.19298,-0.057 -3,0.75 -0.82777,0.82777 -0.86671,1.48342 -1.25,2.25 -0.45089,0.90178 -0.44764,2.77618 0.5,3.25 0.23741,0.11871 1.47216,1.48609 2,1.75 0.26667,0.13334 0.73333,-0.13333 1,0 0.75751,0.37876 1.79336,0.20665 2.25,-0.25 0.17321,-0.17321 1.07679,-0.0768 1.25,-0.25 1.16765,-1.16764 1.47158,-2.05684 1,-3 -0.40355,-0.80709 -0.0615,-1.31154 -0.75,-2 -0.11785,-0.11785 0.11785,-0.38214 0,-0.5 -1.07587,-1.07586 -0.72341,-1.54468 -3,-2 z"
         style="fill:none;stroke:#000000;stroke-width:5;stroke-linecap:round;stroke-linejoin:round;stroke-miterlimit:4;stroke-opacity:1;stroke-dasharray:none" />
      <path
         transform="translate(6.1629528,2.7722329)"
         inkscape:connector-curvature="0"
         id="path4886"
         d="m 107.75,293.048 c -1.1943,0.58595 -3.66428,0.32856 -4.25,1.5 -0.0949,0.18987 -0.25,3.41546 -0.25,3.75 0,3.07096 3.67817,4.10728 6.25,3.25 1.55222,-0.5174 4.18136,-3.56863 2.5,-5.25 -0.53221,-0.53221 -0.27888,-1.51444 -1.25,-2 -1.40663,-0.70331 -0.70729,-1.25 -3,-1.25 z"
         style="fill:none;stroke:#000000;stroke-width:5;stroke-linecap:round;stroke-linejoin:round;stroke-miterlimit:4;stroke-opacity:1;stroke-dasharray:none" />
      <path
         transform="translate(6.1629528,2.7722329)"
         inkscape:connector-curvature="0"
         id="path4888"
         d="m 84,290.298 c -0.435854,0.12726 -1.657036,0.65704 -2,1 -0.132273,0.13228 -0.206936,1.07775 -0.25,1.25 -0.272539,1.09016 -1.14315,1.5363 -1.5,2.25 -0.149071,0.29815 -0.08084,0.67662 0,1 0.42351,1.69404 1.870869,4.12087 3,5.25 0.119746,0.11975 2.936685,0.28166 3.5,0 2.038648,-1.01932 2.674054,-2.8481 3.75,-5 0.16062,-0.32124 0.75,-1.49487 0.75,-1.5 0,-2.18211 -4.690162,-3.19016 -5.75,-4.25 -0.353553,-0.35355 -1,0 -1.5,0 z"
         style="fill:none;stroke:#000000;stroke-width:5;stroke-linecap:round;stroke-linejoin:round;stroke-miterlimit:4;stroke-opacity:1;stroke-dasharray:none" />
    </g>
    <path
       style="fill:none;stroke:#000000;stroke-width:5;stroke-linecap:round;stroke-linejoin:round;stroke-opacity:1;stroke-miterlimit:4;stroke-dasharray:none"
       d="m 596,211.048 c 0.75346,3.45422 13.6915,21 14,21 8.26852,2.06714 9.67325,-4.83662 16,-8 4.95674,-2.47837 11.52447,-6.52447 15,-10 0.97168,-0.97168 4.92385,-1.92385 6,-3 0.38245,-0.38245 -2.97138,-6.97137 -3,-7 -2.95805,-2.95805 -7.43561,-8.87121 -10,-14 -0.33333,-0.66666 -0.25464,-2 -1,-2 -0.74536,0 -0.47295,1.47296 -1,2 -1.18216,1.18216 -4.45489,0.45489 -6,2 -3.54044,3.54044 5.24264,-2.16176 -1,2 -1.73579,1.1572 -4.93498,0.86997 -6,3 -1.23292,2.46583 -17.99636,11.91287 -23,14 z"
       id="path4971"
       inkscape:connector-curvature="0"
       transform="translate(6.1629528,2.7722329)" />
    <path
       style="fill:none;stroke:#000000;stroke-width:5;stroke-linecap:round;stroke-linejoin:round;stroke-opacity:1;stroke-miterlimit:4;stroke-dasharray:none"
       d="m 632,221.048 c -0.72918,4.38249 0.61788,24.61789 1,25 0.86576,0.86577 3.8366,-0.5817 5,0 2.03933,1.01967 18.30488,0.84756 22,-1 4.1958,-2.09789 9.99845,1 14,1"
       id="path4973"
       inkscape:connector-curvature="0"
       transform="translate(6.1629528,2.7722329)" />
    <path
       style="fill:none;stroke:#000000;stroke-width:5;stroke-linecap:round;stroke-linejoin:round;stroke-opacity:1;stroke-miterlimit:4;stroke-dasharray:none"
       d="m 599,220.048 c -22.32748,0 3.34456,9.9076 -2,1 -1,-1.66666 -3.62563,1.62564 -5,3 -1.05409,1.0541 4.66667,-0.66666 4,-2 -0.66667,-1.33333 -2.66667,1.33334 -4,2 2.23513,17.57939 5.0559,4 12,4"
       id="path4975"
       inkscape:connector-curvature="0"
       transform="translate(6.1629528,2.7722329)" />
    <path
       style="fill:none;stroke:#000000;stroke-width:5;stroke-linecap:round;stroke-linejoin:round;stroke-miterlimit:4;stroke-opacity:1;stroke-dasharray:none"
       d="m 612.16295,303.82023 c 2.69546,8.53279 -0.0271,15.89159 2,24 0.0956,0.3825 0.85973,6.85973 1,7 0.2357,0.23571 1,-0.33333 1,0 0,0.33334 -1,-0.33333 -1,0 0,0.94026 20.23757,1.76244 21,1 1.22916,-1.22915 0,-10.24353 0,-12 0,-4.94474 -0.80816,-19.80816 -2,-21 -0.95999,-0.95999 -4.73748,0.63126 -6,0 -2.67387,-1.33693 -10.74646,-1.25354 -11,-1 -0.2357,0.23571 0,0.66667 0,1 -1.66667,0.33334 -3.33333,0.66667 -5,1 z"
       id="path4977"
       inkscape:connector-curvature="0" />
    <path
       style="fill:none;stroke:#000000;stroke-width:5;stroke-linecap:round;stroke-linejoin:round;stroke-miterlimit:4;stroke-opacity:1;stroke-dasharray:none"
       d="m 607.07199,319.8235 c -6.69421,0.046 -15.45748,4.39844 -18.03123,9.54594 -1.10668,2.21337 -0.59725,4.75405 -1.06066,7.07107 -0.5707,2.8535 -2.47487,5.97168 -2.47487,8.83883 0,2.98697 4.09917,12.65448 6.01041,15.2028 0.7618,1.01574 1.59099,2.12132 2.12132,3.18198 1.17931,2.35862 8.20456,5.16294 10.6066,6.36396 1.59578,0.79789 3.03404,2.04735 4.59619,2.82843 8.07628,4.03814 16.91139,8.25944 26.16295,6.71751 2.93853,-0.48975 5.92612,0.0211 8.83884,-0.7071 3.47433,-0.86859 6.56577,-3.48496 9.89949,-4.5962 1.6167,-0.5389 3.19336,-1.27962 4.5962,-2.12132 0.94205,-0.56523 2.1774,-0.80952 3.18198,-1.06066 1.25562,-0.31391 4.26821,-3.58668 4.94975,-4.94975 0.4582,-0.91641 0.47444,-1.89775 0.7071,-2.82842 0.27635,-1.10538 1.12299,-2.01706 1.41422,-3.18198 0.34916,-1.39668 0.62739,-2.94284 1.06066,-4.24265 0.4659,-1.39771 -0.002,-3.17426 0.35355,-4.59619 0.63634,-2.54537 0.83262,-6.46649 -0.35355,-8.83883 -0.10541,-0.21082 0.16666,-0.54044 0,-0.70711 -1.06209,-1.06209 -2.3052,-3.38006 -2.82843,-4.94975 -0.28987,-0.86961 -3.887,-5.29913 -4.59619,-6.71751 -0.99681,-1.99361 -9.14799,-5.2811 -11.31371,-6.36396 -1.51202,-0.75601 -7.02682,-3.53554 -8.13173,-3.53554 -0.72039,0 -3.70876,-0.7071 -3.18198,-0.7071"
       id="path4983"
       inkscape:connector-curvature="0" />
    <path
       style="fill:none;stroke:#000000;stroke-width:5;stroke-linecap:round;stroke-linejoin:round;stroke-miterlimit:4;stroke-opacity:1;stroke-dasharray:none"
       d="m 606.01133,338.91538 c -1.83378,1.89124 -2.77789,2.67679 -3.53554,4.94975 -0.16874,0.50624 0.23615,1.29547 0,1.76777 -0.21855,0.4371 -0.67009,1.8788 -0.35355,2.82842 1.50433,4.51299 4.45137,8.38874 8.83883,11.31371 0.39003,0.26002 0.64299,0.85182 1.06066,1.06066 1.28047,0.64023 3.06164,1.64743 3.88909,2.47488 0.25,0.25 0.71766,-0.0858 1.06066,0 2.37176,0.59293 4.44157,1.48052 6.36396,2.12132 0.95422,0.31807 2.20343,-0.24464 3.18198,0 2.68279,0.67069 9.4011,1.13308 11.66726,0 0.42164,-0.21082 0.95689,0.11433 1.41422,0 2.64378,-0.66095 7.30064,-1.64379 9.19239,-3.53554 0.99196,-0.99196 3.35068,-4.04165 3.88908,-5.65685 0.36548,-1.09644 0.57884,-2.21833 1.06066,-3.18198 0.37713,-0.75425 -0.37712,-2.07418 0,-2.82843 0.69506,-1.39011 -0.17073,-5.12048 -1.41421,-6.36396 -0.73151,-0.73151 0.0286,1.11785 -0.70711,-0.35355 -0.10541,-0.21082 0.16667,-0.54044 0,-0.70711 -0.75107,-0.75107 -2.21026,-1.85671 -2.82842,-2.47487 -0.58932,-0.58932 -1.71808,-0.65742 -2.12132,-1.06066 -0.4585,-0.4585 -2.82843,-0.26993 -2.82843,-1.06066"
       id="path4985"
       inkscape:connector-curvature="0" />
  </g>
</svg>
